<?xml version="1.0" encoding="UTF-8"?>
<svg width="512" height="512" viewBox="0 0 512 512" fill="none" xmlns="http://www.w3.org/2000/svg">
  <!-- Fundo circular com gradiente -->
  <circle cx="256" cy="256" r="256" fill="url(#grad1)"/>
  
  <!-- Cana de açúcar estilizada -->
  <path d="M256 120
           C 256 120, 340 180, 340 256
           C 340 332, 256 392, 256 392
           C 256 392, 172 332, 172 256
           C 172 180, 256 120, 256 120 Z" 
        fill="#4CAF50" stroke="#2E7D32" stroke-width="12"/>
  
  <!-- Folhas da cana -->
  <path d="M256 140
           C 256 140, 300 170, 300 220
           C 300 270, 256 300, 256 300"
        stroke="#81C784" stroke-width="8" stroke-linecap="round"/>
  
  <path d="M256 140
           C 256 140, 212 170, 212 220
           C 212 270, 256 300, 256 300"
        stroke="#81C784" stroke-width="8" stroke-linecap="round"/>
  
  <!-- Círculo central com calculadora -->
  <circle cx="256" cy="256" r="60" fill="white" stroke="#2E7D32" stroke-width="4"/>
  
  <!-- Símbolo de calculadora -->
  <rect x="226" y="226" width="60" height="60" rx="4" fill="#2E7D32"/>
  <rect x="232" y="232" width="48" height="16" rx="2" fill="white"/>
  <rect x="232" y="254" width="14" height="14" rx="2" fill="white"/>
  <rect x="249" y="254" width="14" height="14" rx="2" fill="white"/>
  <rect x="266" y="254" width="14" height="14" rx="2" fill="white"/>
  <rect x="232" y="272" width="14" height="14" rx="2" fill="white"/>
  <rect x="249" y="272" width="14" height="14" rx="2" fill="white"/>
  <rect x="266" y="272" width="14" height="14" rx="2" fill="white"/>
  
  <!-- Definição do gradiente -->
  <defs>
    <linearGradient id="grad1" x1="0" y1="0" x2="512" y2="512">
      <stop offset="0%" style="stop-color:#43A047"/>
      <stop offset="100%" style="stop-color:#1B5E20"/>
    </linearGradient>
  </defs>
</svg> 